<?xml version="1.0" standalone="no"?>
<!DOCTYPE svg PUBLIC "-//W3C//DTD SVG 20010904//EN"
 "http://www.w3.org/TR/2001/REC-SVG-20010904/DTD/svg10.dtd">
<svg version="1.0" xmlns="http://www.w3.org/2000/svg"
 width="1024.000000pt" height="1024.000000pt" viewBox="0 0 1024.000000 1024.000000"
 preserveAspectRatio="xMidYMid meet">

<g transform="translate(0.000000,1024.000000) scale(0.100000,-0.100000)"
fill="#000000" stroke="none">
<path d="M0 5120 l0 -5120 5120 0 5120 0 0 5120 0 5120 -5120 0 -5120 0 0
-5120z m6235 1930 c457 -50 874 -332 1078 -727 62 -120 93 -203 124 -333 25
-102 26 -116 30 -525 5 -451 0 -538 -43 -702 -41 -157 -169 -423 -196 -407 -7
4 -8 2 -4 -4 14 -24 -150 -216 -289 -337 -49 -43 -135 -99 -218 -144 -85 -45
-244 -104 -261 -98 -6 3 9 10 33 16 24 7 51 16 60 21 9 4 36 14 60 21 34 10
39 14 25 20 -20 8 -20 8 33 13 18 2 28 16 12 16 -11 0 -11 2 1 10 21 13 39 12
20 -1 -12 -9 -12 -10 3 -5 10 3 23 6 29 6 5 0 3 7 -6 15 -13 14 -19 13 -53 -6
l-38 -21 19 21 c11 11 14 21 8 21 -6 0 -14 -4 -17 -10 -3 -5 -12 -10 -18 -10
-7 0 -6 4 3 10 11 8 8 9 -12 6 -16 -3 -28 -1 -28 4 0 5 10 10 23 12 17 2 21 9
19 28 -1 17 1 21 7 11 5 -7 11 -9 14 -4 12 20 -34 53 -74 53 -28 0 -22 5 16
14 16 4 27 4 23 0 -5 -4 6 -15 22 -25 17 -11 30 -26 30 -34 0 -8 5 -15 10 -15
6 0 10 8 10 17 0 9 9 26 20 38 19 21 19 21 0 22 -11 1 -20 -2 -20 -8 0 -5 -4
-9 -10 -9 -20 0 -9 21 16 30 14 6 22 15 19 21 -4 6 -14 8 -22 5 -11 -4 -13 -2
-9 9 7 18 -3 19 -26 1 -10 -7 -15 -16 -11 -19 3 -4 1 -7 -6 -7 -7 0 -9 -5 -5
-11 5 -8 2 -9 -11 -2 -18 11 -99 -13 -90 -26 2 -4 -4 -7 -13 -7 -9 -1 -57 -14
-107 -29 -85 -27 -101 -28 -300 -30 l-210 -2 205 7 c217 9 260 16 395 69 160
61 342 200 449 340 62 80 146 205 146 215 0 5 17 43 39 85 21 42 52 126 67
186 l29 110 0 430 c0 467 -3 496 -62 654 -49 132 -162 317 -188 307 -7 -2 -18
1 -24 7 -7 7 6 -22 28 -64 52 -97 81 -191 89 -288 4 -42 5 -265 2 -496 -4
-241 -7 -334 -8 -217 -2 185 -4 202 -19 203 -15 0 -15 2 2 9 15 6 10 8 -20 7
-22 -1 -45 -8 -51 -16 -9 -12 -12 -9 -18 12 -4 18 -11 24 -21 21 -9 -4 -15 0
-15 10 0 9 -8 16 -20 16 -11 0 -20 -5 -20 -11 0 -5 5 -7 11 -4 6 4 13 -3 16
-15 4 -16 11 -20 26 -16 15 4 17 2 8 -7 -9 -9 -19 -8 -42 6 -17 9 -51 17 -75
17 -36 0 -44 3 -43 18 0 10 3 12 6 4 2 -6 9 -10 14 -7 19 12 -16 31 -53 29
-37 -2 -51 9 -25 19 7 3 5 6 -5 6 -10 1 -18 -4 -18 -9 0 -16 -49 19 -54 38 -2
10 -7 29 -10 45 -4 15 -12 27 -18 27 -9 0 -9 -3 0 -12 7 -7 11 -21 11 -33 -1
-18 -2 -18 -6 -2 -4 15 -12 18 -44 15 -21 -2 -39 0 -39 4 0 5 5 8 10 8 6 0 10
7 10 16 0 14 -3 14 -15 4 -15 -12 -17 -10 -19 20 -1 8 -10 15 -21 15 -11 0
-24 3 -30 6 -5 4 -27 9 -47 13 -30 5 -37 3 -41 -11 -4 -17 -5 -17 -6 0 0 10 6
20 14 23 23 9 6 26 -18 18 -20 -6 -20 -5 -8 10 11 13 11 20 3 28 -9 9 -12 9
-12 -1 0 -7 -5 -9 -11 -5 -6 3 -8 17 -5 30 5 17 2 24 -9 24 -10 0 -15 -10 -16
-27 0 -16 -3 -22 -6 -15 -2 6 -9 12 -14 12 -6 0 -5 -9 2 -21 6 -13 7 -19 1
-15 -6 3 -12 1 -14 -6 -2 -6 -11 -12 -20 -14 -11 -1 -15 3 -11 13 5 12 7 12
14 1 5 -7 9 -10 9 -6 0 3 3 14 7 24 4 11 3 15 -5 10 -6 -3 -14 -2 -17 4 -4 6
-1 9 6 8 6 -2 14 3 16 10 3 7 -3 12 -15 12 -11 0 -25 7 -32 15 -14 17 -40 20
-40 5 0 -5 -7 -7 -15 -4 -8 4 -15 10 -15 16 0 5 5 6 10 3 6 -3 13 1 16 10 4 9
12 14 19 11 8 -3 16 1 18 8 4 9 -2 11 -19 8 -18 -3 -24 0 -24 12 0 10 -5 14
-10 11 -8 -5 -8 -11 0 -20 8 -10 4 -16 -19 -28 -27 -14 -29 -13 -40 9 -9 20
-8 24 5 24 10 0 14 -6 11 -14 -4 -10 -1 -13 9 -9 32 12 5 48 -30 39 -21 -5
-28 -1 -41 24 -9 16 -21 30 -28 30 -8 0 -7 -4 3 -10 12 -8 11 -10 -7 -10 -14
0 -23 -6 -23 -16 0 -8 -5 -12 -10 -9 -7 4 -7 13 0 26 8 15 7 23 -3 34 -8 8
-18 11 -21 8 -16 -16 -45 -12 -51 8 -4 11 -4 23 -1 26 3 4 6 -1 6 -10 0 -10 5
-17 10 -17 19 0 10 32 -10 37 -11 3 -18 8 -16 12 3 4 -14 7 -37 8 -23 1 -52 2
-64 2 -25 1 -31 16 -10 25 21 8 -25 38 -50 31 -13 -3 -23 -1 -23 5 0 6 5 8 10
5 6 -3 10 -1 10 4 0 19 -70 16 -82 -3 -6 -8 -8 -8 -8 2 0 6 -7 12 -16 12 -13
0 -14 3 -5 14 6 7 22 11 35 9 13 -3 27 1 31 8 6 9 3 10 -9 6 -26 -10 -38 1
-25 25 9 16 8 19 -3 15 -7 -2 -12 -9 -11 -16 3 -13 -41 -26 -56 -16 -20 12
-11 26 12 21 12 -3 16 -3 10 0 -21 9 -15 24 10 21 13 -1 22 3 22 12 0 22 -21
24 -40 5 -14 -15 -18 -15 -27 -3 -8 11 -9 10 -4 -4 6 -18 -2 -47 -13 -47 -4 0
-5 18 -3 41 3 22 0 45 -6 51 -6 6 -8 1 -5 -16 3 -15 1 -26 -6 -26 -6 0 -11 -7
-11 -15 0 -8 -4 -15 -10 -15 -5 0 -10 9 -10 20 0 11 5 19 11 17 6 -1 14 4 16
11 3 6 -2 12 -11 12 -9 0 -16 4 -16 9 0 5 -24 8 -54 8 -52 -2 -54 -1 -39 16 9
9 13 20 9 24 -4 4 -12 1 -17 -7 -8 -12 -9 -10 -4 7 7 26 -10 39 -30 23 -11 -9
-15 -9 -15 -1 0 6 5 11 11 11 5 0 7 5 4 10 -5 8 -11 8 -20 0 -11 -9 -14 -5
-17 17 -4 30 -4 31 -26 -27 -3 -10 -8 -5 -12 15 -15 68 -19 72 -62 71 -29 0
-45 5 -56 20 -13 16 -27 19 -62 17 l-45 -3 35 12 35 12 -32 4 c-39 4 -35 32 6
33 14 0 20 3 13 6 -19 8 -104 -20 -89 -29 7 -4 8 -8 2 -8 -13 0 -41 18 -35 23
3 2 16 11 30 20 l24 17 -46 0 c-27 0 -48 -5 -50 -12 -2 -6 -10 -8 -16 -4 -16
10 -5 26 18 26 20 0 35 26 20 35 -6 4 -10 1 -10 -4 0 -6 -18 -11 -40 -11 -22
0 -40 5 -40 10 0 6 -6 10 -14 10 -8 0 -16 7 -20 15 -3 8 -1 15 4 15 6 0 10 -4
10 -10 0 -5 5 -10 10 -10 18 0 10 39 -9 45 -25 7 -24 45 1 45 9 0 21 7 26 15
4 9 21 20 38 24 18 6 -64 10 -231 11 -552 4 -586 2 -740 -47 -169 -54 -336
-155 -458 -279 -170 -173 -261 -335 -329 -581 -19 -71 -22 -113 -28 -448 -5
-296 -6 -328 -8 -157 -2 162 -5 212 -14 212 -10 0 -10 2 -1 8 8 5 12 28 11 63
-1 29 -4 46 -6 36 -7 -34 -27 -11 -33 39 -3 27 -7 36 -7 21 -1 -18 -6 -26 -13
-21 -7 4 -9 -1 -5 -15 3 -11 8 -30 11 -40 3 -11 0 -23 -6 -27 -9 -5 -10 -2 -6
9 3 10 2 17 -2 17 -5 0 -7 8 -4 18 3 12 -1 19 -11 19 -9 0 -16 -5 -16 -10 0
-6 -2 -8 -5 -5 -3 3 -2 13 1 22 5 14 9 15 16 4 6 -8 7 0 2 22 -6 31 -5 33 10
21 11 -9 16 -10 16 -2 0 6 -7 14 -15 17 -8 4 -15 13 -15 21 0 10 -7 13 -22 8
l-23 -6 22 19 c23 20 20 40 -4 21 -10 -9 -13 -6 -13 15 0 14 4 26 9 26 5 0 11
9 14 19 4 17 2 18 -14 8 -10 -6 -20 -23 -22 -37 -3 -18 -4 -15 -6 12 0 20 -3
43 -6 50 -4 9 5 20 22 28 22 10 24 14 11 17 -11 3 -15 10 -11 20 4 11 2 14 -5
9 -8 -5 -12 2 -13 21 -1 17 -3 21 -6 11 -2 -10 -9 -18 -14 -18 -5 0 -9 -5 -9
-11 0 -5 5 -7 10 -4 6 3 10 1 10 -4 0 -6 -7 -11 -15 -11 -20 0 -19 8 15 135
99 373 355 680 705 850 181 88 302 127 447 144 105 12 1953 13 2063 1z m-1345
-254 c0 -3 -4 -8 -10 -11 -5 -3 -10 -1 -10 4 0 6 5 11 10 11 6 0 10 -2 10 -4z
m40 -6 c0 -5 -4 -10 -10 -10 -5 0 -10 5 -10 10 0 6 5 10 10 10 6 0 10 -4 10
-10z m-160 -90 c0 -5 -5 -10 -11 -10 -5 0 -7 5 -4 10 3 6 8 10 11 10 2 0 4 -4
4 -10z m545 -290 c3 -5 1 -10 -4 -10 -6 0 -11 5 -11 10 0 6 2 10 4 10 3 0 8
-4 11 -10z m1690 -77 c0 -6 3 -15 8 -19 17 -17 5 -26 -13 -9 -22 20 -27 49 -7
43 6 -3 12 -10 12 -15z m-1479 -28 c3 -8 0 -21 -8 -29 -11 -11 -17 -11 -31 -1
-20 14 -22 31 -4 38 23 10 38 7 43 -8z m-78 -20 c-3 -3 -9 2 -12 12 -6 14 -5
15 5 6 7 -7 10 -15 7 -18z m222 -5 c0 -5 -4 -10 -10 -10 -5 0 -10 5 -10 10 0
6 5 10 10 10 6 0 10 -4 10 -10z m60 -120 c0 -5 -2 -10 -4 -10 -3 0 -8 5 -11
10 -3 6 -1 10 4 10 6 0 11 -4 11 -10z m-20 -30 c0 -5 -2 -10 -4 -10 -3 0 -8 5
-11 10 -3 6 -1 10 4 10 6 0 11 -4 11 -10z m40 -5 c0 -8 -4 -15 -10 -15 -5 0
-10 7 -10 15 0 8 5 15 10 15 6 0 10 -7 10 -15z m50 7 c0 -4 -9 -13 -20 -20
-23 -14 -26 -8 -7 13 13 16 27 19 27 7z m7 -48 c-3 -3 -12 -4 -19 -1 -8 3 -5
6 6 6 11 1 17 -2 13 -5z m118 -14 c11 -19 -3 -40 -21 -33 -16 6 -16 7 2 14 16
6 14 8 -9 8 -16 1 -26 5 -22 11 8 13 42 13 50 0z m55 -65 c0 -8 -4 -15 -10
-15 -5 0 -7 7 -4 15 4 8 8 15 10 15 2 0 4 -7 4 -15z m30 5 c0 -5 -4 -10 -10
-10 -5 0 -10 5 -10 10 0 6 5 10 10 10 6 0 10 -4 10 -10z m-10 -40 c0 -5 -2
-10 -4 -10 -3 0 -8 5 -11 10 -3 6 -1 10 4 10 6 0 11 -4 11 -10z m80 -11 c0 -5
-7 -9 -15 -9 -8 0 -15 7 -15 15 0 9 6 12 15 9 8 -4 15 -10 15 -15z m4 -26 c2
7 5 5 5 -4 1 -13 -7 -16 -31 -14 -18 1 -34 7 -36 13 -2 8 6 8 27 2 21 -6 31
-5 35 3z m-3064 -32 c0 -5 -7 -14 -15 -21 -14 -12 -14 -15 0 -30 11 -12 15
-30 12 -52 l-4 -33 -1 38 c-2 25 -7 37 -17 37 -11 0 -15 -11 -15 -42 0 -23 -3
-39 -6 -35 -3 3 -3 38 1 76 6 61 10 71 26 71 10 0 19 -4 19 -9z m3090 -13 c0
6 5 12 10 12 6 0 5 -8 -2 -20 -9 -14 -14 -16 -20 -7 -4 7 -8 17 -8 22 0 6 5 3
10 -5 6 -10 10 -11 10 -2z m130 -47 c0 -4 -11 -7 -25 -7 -14 0 -25 5 -25 12 0
7 10 9 25 6 14 -2 25 -7 25 -11z m-3203 -103 c-3 -8 -6 -5 -6 6 -1 11 2 17 5
13 3 -3 4 -12 1 -19z m-27 -24 c0 -8 -5 -12 -10 -9 -6 4 -8 11 -5 16 9 14 15
11 15 -7z m3470 6 c0 -5 -10 -10 -22 -9 -22 0 -22 1 -3 9 11 5 21 9 23 9 1 1
2 -3 2 -9z m30 -10 c0 -5 -4 -10 -10 -10 -5 0 -10 5 -10 10 0 6 5 10 10 10 6
0 10 -4 10 -10z m-3437 -24 c4 -10 1 -13 -8 -9 -8 3 -12 9 -9 14 7 12 11 11
17 -5z m-106 -73 c-2 -16 -4 -5 -4 22 0 28 2 40 4 28 2 -13 2 -35 0 -50z
m3548 57 c3 -5 1 -10 -4 -10 -6 0 -11 5 -11 10 0 6 2 10 4 10 3 0 8 -4 11 -10z
m135 -44 c0 -3 -4 -8 -10 -11 -5 -3 -10 -1 -10 4 0 6 5 11 10 11 6 0 10 -2 10
-4z m-513 -22 c-3 -3 -12 -4 -19 -1 -8 3 -5 6 6 6 11 1 17 -2 13 -5z m131 -1
c-21 -2 -57 -2 -80 0 -24 2 -7 4 37 4 44 0 63 -2 43 -4z m-3301 -70 c-3 -10
-5 -2 -5 17 0 19 2 27 5 18 2 -10 2 -26 0 -35z m3411 12 c7 -14 12 -38 11 -53
-1 -22 -3 -20 -10 12 -5 22 -14 45 -20 53 -7 7 -7 13 -2 13 5 0 15 -11 21 -25z
m392 -14 c0 -10 -6 -18 -13 -18 -9 0 -12 9 -9 24 5 26 22 21 22 -6z m270 -51
c0 -5 -4 -10 -9 -10 -6 0 -13 5 -16 10 -3 6 1 10 9 10 9 0 16 -4 16 -10z m37
-462 c-3 -8 -6 -5 -6 6 -1 11 2 17 5 13 3 -3 4 -12 1 -19z m-512 -1018 c-3 -5
-11 -10 -16 -10 -6 0 -7 5 -4 10 3 6 11 10 16 10 6 0 7 -4 4 -10z m42 -16 c-3
-3 -12 -4 -19 -1 -8 3 -5 6 6 6 11 1 17 -2 13 -5z m-45 -26 c-7 -7 -12 -8 -12
-2 0 14 12 26 19 19 2 -3 -1 -11 -7 -17z m-739 -5 c-13 -2 -33 -2 -45 0 -13 2
-3 4 22 4 25 0 35 -2 23 -4z m787 -3 c0 -5 -2 -10 -4 -10 -3 0 -8 5 -11 10 -3
6 -1 10 4 10 6 0 11 -4 11 -10z m-21 -47 c8 -14 11 -15 11 -3 0 12 3 11 11 -2
7 -12 6 -24 -1 -38 -13 -24 -22 -27 -13 -3 4 11 3 14 -5 9 -8 -5 -10 -2 -6 8
5 12 -1 16 -25 16 -47 0 -39 21 11 29 4 0 12 -7 17 -16z m-9 -59 c0 -8 -19
-13 -24 -6 -3 5 1 9 9 9 8 0 15 -2 15 -3z m-2022 -144 c-23 -43 -48 -82 -55
-85 -8 -2 -11 0 -8 5 3 6 4 10 1 10 -3 0 -11 -10 -18 -23 -7 -13 -35 -43 -63
-68 -49 -43 -47 -35 6 26 123 142 149 173 149 183 0 7 21 32 27 32 1 0 -16
-36 -39 -80z m1879 64 c-3 -3 -12 -4 -19 -1 -8 3 -5 6 6 6 11 1 17 -2 13 -5z
m-40 -10 c-3 -3 -12 -4 -19 -1 -8 3 -5 6 6 6 11 1 17 -2 13 -5z m-44 -11 c-7
-2 -19 -2 -25 0 -7 3 -2 5 12 5 14 0 19 -2 13 -5z m-1688 -251 l-28 -27 24 31
c13 17 26 30 28 27 3 -2 -8 -16 -24 -31z m-305 5 c0 -2 -12 -14 -27 -28 l-28
-24 24 28 c23 25 31 32 31 24z"/>
<path d="M5018 6803 c7 -3 16 -2 19 1 4 3 -2 6 -13 5 -11 0 -14 -3 -6 -6z"/>
<path d="M4910 6730 c0 -5 5 -10 11 -10 5 0 7 5 4 10 -3 6 -8 10 -11 10 -2 0
-4 -4 -4 -10z"/>
<path d="M4957 6719 c7 -7 15 -10 18 -7 3 3 -2 9 -12 12 -14 6 -15 5 -6 -5z"/>
<path d="M4990 6680 c0 -5 5 -10 10 -10 6 0 10 5 10 10 0 6 -4 10 -10 10 -5 0
-10 -4 -10 -10z"/>
<path d="M4950 6665 c0 -8 2 -15 4 -15 2 0 6 7 10 15 3 8 1 15 -4 15 -6 0 -10
-7 -10 -15z"/>
<path d="M5138 6613 c12 -2 32 -2 45 0 12 2 2 4 -23 4 -25 0 -35 -2 -22 -4z"/>
<path d="M5148 6563 c7 -3 16 -2 19 1 4 3 -2 6 -13 5 -11 0 -14 -3 -6 -6z"/>
<path d="M5200 6555 c0 -16 22 -45 35 -45 7 0 15 -5 17 -11 3 -9 12 -9 34 -1
l29 10 -30 1 c-18 1 -42 12 -58 26 -15 14 -27 23 -27 20z"/>
<path d="M5355 6550 c-3 -5 -1 -10 4 -10 6 0 11 5 11 10 0 6 -2 10 -4 10 -3 0
-8 -4 -11 -10z"/>
<path d="M5278 6533 c6 -2 18 -2 25 0 6 3 1 5 -13 5 -14 0 -19 -2 -12 -5z"/>
<path d="M5354 6512 c3 -5 0 -13 -6 -15 -8 -3 -6 -6 5 -6 19 -1 23 14 5 25 -6
4 -8 3 -4 -4z"/>
<path d="M5330 6470 c0 -5 5 -10 10 -10 6 0 10 5 10 10 0 6 -4 10 -10 10 -5 0
-10 -4 -10 -10z"/>
<path d="M5421 6464 c0 -11 3 -14 6 -6 3 7 2 16 -1 19 -3 4 -6 -2 -5 -13z"/>
<path d="M5420 6424 c0 -8 5 -12 10 -9 6 4 8 11 5 16 -9 14 -15 11 -15 -7z"/>
<path d="M5450 6413 c0 -14 19 -38 25 -32 8 8 -5 39 -16 39 -5 0 -9 -3 -9 -7z"/>
<path d="M6960 6396 c0 -2 8 -10 18 -17 15 -13 16 -12 3 4 -13 16 -21 21 -21
13z"/>
<path d="M5485 6360 c-3 -5 1 -10 10 -10 9 0 13 5 10 10 -3 6 -8 10 -10 10 -2
0 -7 -4 -10 -10z"/>
<path d="M5530 6350 c0 -5 4 -10 9 -10 6 0 13 5 16 10 3 6 -1 10 -9 10 -9 0
-16 -4 -16 -10z"/>
<path d="M5630 6320 c0 -5 5 -10 11 -10 5 0 7 5 4 10 -3 6 -8 10 -11 10 -2 0
-4 -4 -4 -10z"/>
<path d="M5710 6240 c0 -13 11 -13 30 0 12 8 11 10 -7 10 -13 0 -23 -4 -23
-10z"/>
<path d="M5750 6215 c-8 -9 -8 -15 -2 -15 12 0 26 19 19 26 -2 2 -10 -2 -17
-11z"/>
<path d="M5816 6184 c-11 -7 -18 -16 -15 -18 2 -2 13 2 23 10 11 7 18 16 15
18 -2 2 -13 -2 -23 -10z"/>
<path d="M5850 6130 c0 -5 5 -10 10 -10 6 0 10 5 10 10 0 6 -4 10 -10 10 -5 0
-10 -4 -10 -10z"/>
<path d="M5880 6110 c0 -13 11 -13 30 0 12 8 11 10 -7 10 -13 0 -23 -4 -23
-10z"/>
<path d="M5968 6083 c5 -10 11 -25 14 -33 3 -10 6 -8 10 8 4 12 2 20 -3 16 -5
-3 -9 2 -9 10 0 9 -5 16 -10 16 -7 0 -7 -6 -2 -17z"/>
<path d="M6060 6071 c0 -6 4 -13 10 -16 6 -3 7 1 4 9 -7 18 -14 21 -14 7z"/>
<path d="M6025 6050 c3 -5 11 -10 16 -10 6 0 7 5 4 10 -3 6 -11 10 -16 10 -6
0 -7 -4 -4 -10z"/>
<path d="M6173 6003 c4 -3 1 -13 -6 -22 -11 -14 -10 -14 6 -2 20 15 22 31 5
31 -6 0 -8 -3 -5 -7z"/>
<path d="M3042 5983 c2 -9 8 -18 15 -20 7 -3 9 3 6 16 -6 25 -26 28 -21 4z"/>
<path d="M6210 5970 c0 -5 5 -10 11 -10 5 0 7 5 4 10 -3 6 -8 10 -11 10 -2 0
-4 -4 -4 -10z"/>
<path d="M3040 5859 c0 -18 2 -19 15 -5 8 8 15 17 15 20 0 3 -7 6 -15 6 -9 0
-15 -9 -15 -21z"/>
<path d="M6522 5780 c-14 -23 -15 -30 -3 -30 8 0 24 41 18 47 -2 1 -8 -7 -15
-17z"/>
<path d="M6475 5770 c3 -5 8 -10 11 -10 2 0 4 5 4 10 0 6 -5 10 -11 10 -5 0
-7 -4 -4 -10z"/>
<path d="M3107 5764 c-10 -10 13 -45 25 -38 7 4 4 10 -7 17 -14 8 -15 11 -4
18 8 5 9 9 3 9 -6 0 -14 -3 -17 -6z"/>
<path d="M6554 5747 c1 -18 6 -23 19 -19 17 4 17 6 1 23 -22 24 -22 24 -20 -4z"/>
<path d="M6674 5704 c-12 -5 -7 -51 7 -60 5 -3 9 11 9 30 0 20 -1 36 -2 35 -2
0 -8 -3 -14 -5z"/>
<path d="M6590 5690 c0 -5 5 -10 10 -10 6 0 10 5 10 10 0 6 -4 10 -10 10 -5 0
-10 -4 -10 -10z"/>
<path d="M6730 5660 c0 -5 5 -10 10 -10 6 0 10 5 10 10 0 6 -4 10 -10 10 -5 0
-10 -4 -10 -10z"/>
<path d="M6725 5630 c3 -5 13 -10 21 -10 8 0 12 5 9 10 -3 6 -13 10 -21 10 -8
0 -12 -4 -9 -10z"/>
<path d="M6690 5615 c0 -8 5 -15 10 -15 6 0 10 7 10 15 0 8 -4 15 -10 15 -5 0
-10 -7 -10 -15z"/>
<path d="M6761 5601 c-8 -5 -9 -11 -3 -15 6 -3 14 -1 17 5 4 5 14 8 22 5 8 -3
11 -1 8 4 -8 12 -25 13 -44 1z"/>
<path d="M6950 5570 c0 -5 5 -10 11 -10 5 0 7 5 4 10 -3 6 -8 10 -11 10 -2 0
-4 -4 -4 -10z"/>
<path d="M6840 5560 c0 -13 28 -25 38 -16 3 4 0 11 -8 16 -20 13 -30 12 -30 0z"/>
<path d="M7048 5553 c7 -3 16 -2 19 1 4 3 -2 6 -13 5 -11 0 -14 -3 -6 -6z"/>
<path d="M6975 5540 c-3 -5 1 -10 10 -10 9 0 13 5 10 10 -3 6 -8 10 -10 10 -2
0 -7 -4 -10 -10z"/>
<path d="M6724 4115 c-19 -18 -22 -25 -11 -25 8 0 17 -8 19 -17 3 -15 5 -14
10 5 3 12 2 20 -3 16 -15 -9 -10 12 5 25 11 9 15 9 19 -1 4 -8 6 -7 6 5 1 24
-13 21 -45 -8z"/>
<path d="M6964 4129 c-3 -6 -1 -16 6 -22 10 -9 11 -9 5 2 -4 8 -2 17 6 22 9 6
10 9 2 9 -6 0 -15 -5 -19 -11z"/>
<path d="M6770 4080 c0 -5 5 -10 11 -10 5 0 7 5 4 10 -3 6 -8 10 -11 10 -2 0
-4 -4 -4 -10z"/>
<path d="M6800 4062 c0 -5 -10 -8 -22 -8 -16 1 -23 -5 -23 -18 0 -11 5 -21 12
-23 7 -3 9 3 6 18 -5 18 -3 20 14 15 14 -4 23 -1 27 9 3 8 1 15 -4 15 -6 0
-10 -4 -10 -8z"/>
<path d="M6807 4008 c-2 -7 0 -21 5 -30 5 -11 5 -18 -1 -18 -5 0 -12 6 -14 13
-3 7 -6 6 -6 -5 -1 -24 20 -34 31 -14 5 9 16 16 23 16 18 0 20 16 3 26 -7 5
-8 3 -3 -6 6 -10 4 -12 -9 -7 -10 4 -19 7 -22 7 -2 0 -1 7 2 15 4 8 4 15 1 15
-3 0 -7 -6 -10 -12z"/>
<path d="M6874 3998 c0 -10 1 -18 3 -18 1 0 7 8 12 18 7 13 6 19 -2 19 -7 0
-13 -9 -13 -19z"/>
<path d="M6715 4000 c-3 -6 1 -7 9 -4 18 7 21 14 7 14 -6 0 -13 -4 -16 -10z"/>
<path d="M6710 3951 c0 -5 9 -11 20 -14 13 -3 20 0 20 9 0 8 -9 14 -20 14 -11
0 -20 -4 -20 -9z"/>
<path d="M6646 3941 c-3 -5 7 -11 22 -14 32 -6 42 0 22 13 -19 12 -37 13 -44
1z"/>
<path d="M6746 3920 c-17 -6 -18 -7 -3 -13 9 -3 19 -2 23 4 9 15 2 18 -20 9z"/>
<path d="M5490 6295 c0 -8 5 -15 10 -15 6 0 10 7 10 15 0 8 -4 15 -10 15 -5 0
-10 -7 -10 -15z"/>
</g>
</svg>
